<svg xmlns="http://www.w3.org/2000/svg" xmlns:xlink="http://www.w3.org/1999/xlink" x="0px" y="0px" viewBox="0 0 32 32" xml:space="preserve">

<path class="log-s-fill" d="M 3,3 L 13,3 L 13,13 L 3,13 L 5,11 L 11,11 L 11,5 L 5,5 L 5,11 L 3,13  z" />
<path class="log-s-fill" d="M 3,29 L 13,29 L 13,19 L 3,19 L 5,21 L 11,21 L 11,27 L 5,27 L 5,21 L 3,19  z" />

<path class="log-s-plus" d="M 19,13 L 31,13 L 31,17 L 19,17 z" />
<path class="log-s-plus" d="M 23,9 L 27,9 L 27,21 L 23,21 z" />

<path class="log-s-fill" d="M 14,7.5  L 16.5,7.5  L 16.5,13.5 L 18,13.5 L 18,14.5 L 15.5,14.5 L 15.5,8.5  L 14,8.5 z" />
<path class="log-s-fill" d="M 14,24.5 L 16.5,24.5 L 16.5,16.5 L 18,16.5 L 18,15.5 L 15.5,15.5 L 15.5,23.5 L 14,23.5 z" />

</svg>